<svg version="1.1" id="Layer_1" xmlns="http://www.w3.org/2000/svg" x="0" y="0" viewBox="0 0 451.5 462" xml:space="preserve"><style>.st0{fill:#253169}</style><path id="XMLID_1_" class="st0" d="M166 378.1c-21.4 8.1-45.5-2.8-53.5-24.2L23.8 170c-8.1-21.4 2.8-45.5 24.2-53.5 21.4-8.1 45.5 2.8 53.5 24.2l88.7 183.9c8 21.4-2.9 45.4-24.2 53.5z"/><path id="XMLID_13_" class="st0" d="M296.5 378.1c-21.4 8.1-45.5-2.8-53.5-24.2L154.3 170c-8.1-21.4 2.8-45.5 24.2-53.5 21.4-8.1 45.5 2.8 53.5 24.2l88.7 183.9c8 21.4-2.9 45.4-24.2 53.5z"/><circle id="XMLID_7_" cx="391.3" cy="336.7" r="42.6" fill="#d91f2b"/></svg>